<?xml version="1.0" encoding="UTF-8" standalone="no"?>
<svg
   xmlns:osb="http://www.openswatchbook.org/uri/2009/osb"
   xmlns:dc="http://purl.org/dc/elements/1.1/"
   xmlns:cc="http://creativecommons.org/ns#"
   xmlns:rdf="http://www.w3.org/1999/02/22-rdf-syntax-ns#"
   xmlns:svg="http://www.w3.org/2000/svg"
   xmlns="http://www.w3.org/2000/svg"
   xmlns:sodipodi="http://sodipodi.sourceforge.net/DTD/sodipodi-0.dtd"
   xmlns:inkscape="http://www.inkscape.org/namespaces/inkscape"
   width="54.220093mm"
   height="21.099968mm"
   viewBox="0 0 54.220092 21.099968"
   version="1.1"
   id="svg8"
   inkscape:version="1.0 (4035a4fb49, 2020-05-01)"
   sodipodi:docname="logo.svg">
  <defs
     id="defs2">
    <linearGradient
       osb:paint="solid"
       id="linearGradient2839">
      <stop
         id="stop2837"
         offset="0"
         style="stop-color:#000000;stop-opacity:1;" />
    </linearGradient>
    <rect
       id="rect54"
       height="15.119048"
       width="11.339286"
       y="66.901787"
       x="64.633926" />
    <rect
       id="rect48"
       height="21.166668"
       width="52.916668"
       y="66.523811"
       x="64.633926" />
    <rect
       id="rect42"
       height="13.579159"
       width="84.758224"
       y="29.860119"
       x="70.303574" />
    <rect
       id="rect36"
       height="36.663689"
       width="119.44048"
       y="37.419643"
       x="75.217262" />
  </defs>
  <sodipodi:namedview
     id="base"
     pagecolor="#ffffff"
     bordercolor="#666666"
     borderopacity="1.0"
     inkscape:pageopacity="0.0"
     inkscape:pageshadow="2"
     inkscape:zoom="1.979899"
     inkscape:cx="160.30422"
     inkscape:cy="86.929687"
     inkscape:document-units="mm"
     inkscape:current-layer="layer1"
     inkscape:document-rotation="0"
     showgrid="false"
     inkscape:window-width="1920"
     inkscape:window-height="1017"
     inkscape:window-x="-8"
     inkscape:window-y="-8"
     inkscape:window-maximized="1">
    <inkscape:grid
       type="xygrid"
       id="grid859"
       originx="-24.270162"
       originy="-53.832859" />
  </sodipodi:namedview>
  <metadata
     id="metadata5">
    <rdf:RDF>
      <cc:Work
         rdf:about="">
        <dc:format>image/svg+xml</dc:format>
        <dc:type
           rdf:resource="http://purl.org/dc/dcmitype/StillImage" />
        <dc:title />
      </cc:Work>
    </rdf:RDF>
  </metadata>
  <g
     inkscape:label="Слой 1"
     inkscape:groupmode="layer"
     id="layer1"
     transform="translate(-24.270163,-53.832858)">
    <path
       inkscape:export-ydpi="89.427338"
       inkscape:export-xdpi="89.427338"
       id="path8"
       d="m 28.963282,66.634597 c -0.09589,0.423034 -0.356057,0.850417 -0.536628,1.241562 -0.311926,0.67572 -0.609317,1.361165 -0.908238,2.043402 -0.16898,0.385687 -0.525868,0.904605 -0.473152,1.345022 0.04679,0.390682 0.353002,0.721531 0.559904,1.034636 0.185116,0.280099 0.362531,0.669098 0.619884,0.881327 0.330491,0.272498 0.886819,0.353717 1.28123,0.493958 0.935736,0.332744 1.876237,0.6511 2.813722,0.978508 l 1.110678,0.387991 c 0.392469,0.137083 0.752276,0.277851 1.135362,0.02361 0.402118,-0.267045 0.54569,-0.874453 0.711082,-1.316758 0.351498,-0.939863 0.759089,-1.857634 1.120333,-2.793514 0.185593,-0.480897 0.336928,-1.143166 0.809534,-1.397249 0.498007,-0.267713 1.06502,0.04861 1.554951,0.199807 0.972018,0.299995 1.947146,0.598924 2.912451,0.921809 0.443973,0.148511 0.967502,0.414525 1.431541,0.235653 0.633535,-0.24417 0.809339,-1.358888 1.031623,-1.951709 0.376472,-1.004059 0.761976,-2.010603 1.108086,-3.026304 0.126969,-0.372597 0.373168,-0.790953 0.397257,-1.189829 0.0174,-0.285947 -0.08015,-0.622489 -0.124229,-0.905306 -0.06467,-0.414785 -0.03388,-1.016063 -0.322835,-1.340524 -0.318148,-0.357287 -1.037375,-0.418536 -1.472861,-0.534104 -1.104532,-0.293084 -2.289752,-0.527972 -3.356717,-0.94475 0.369385,-0.726855 0.615264,-1.544374 0.923763,-2.302061 0.150563,-0.369751 0.416774,-0.812316 0.454043,-1.215695 0.03188,-0.34549 -0.125969,-0.747991 -0.186638,-1.086367 -0.07115,-0.396781 -0.09248,-1.061199 -0.401724,-1.336522 -0.250298,-0.222842 -0.676675,-0.249871 -0.9869,-0.331146 -0.786827,-0.206138 -1.578152,-0.406779 -2.369448,-0.593618 -0.585622,-0.138295 -1.169395,-0.288407 -1.752406,-0.438442 -0.368323,-0.09478 -0.725942,-0.210231 -1.085996,-0.01683 -0.391824,0.210634 -0.532882,0.717996 -0.70654,1.11271 -0.383778,0.872406 -0.767208,1.746048 -1.162981,2.612454 -0.213275,0.466852 -0.361044,0.983752 -0.870158,1.171745 -0.408704,0.150923 -0.885777,-0.06338 -1.28345,-0.177877 -0.877982,-0.252803 -1.760354,-0.489563 -2.64095,-0.73221 -0.532951,-0.146852 -1.08945,-0.412226 -1.578667,-0.0056 -0.234925,0.195261 -0.345546,0.531001 -0.476018,0.804428 l -0.740445,1.551949 -1.061318,2.224466 c -0.149106,0.312484 -0.405449,0.6759 -0.412162,1.034634 -0.0076,0.410853 0.374095,0.833552 0.574227,1.163963 0.174917,0.288766 0.355527,0.722692 0.611471,0.937277 0.285975,0.239773 0.763848,0.297377 1.10837,0.408394 0.51741,0.166724 1.038069,0.323117 1.554952,0.491452 0.351713,0.114552 0.721577,0.279196 1.085997,0.335609 m 8.762028,-11.251647 0.177701,0.957036 0.464019,2.586585 c -0.304672,0.06831 -0.784065,-0.163356 -1.085997,-0.242436 -0.882226,-0.231157 -1.879221,-0.389487 -2.714995,-0.76633 0.133384,-0.275264 0.557905,-0.498357 0.789818,-0.68741 0.530409,-0.4324 1.066792,-0.859006 1.604314,-1.281677 0.232994,-0.183203 0.486943,-0.46908 0.765134,-0.565766 m -2.320086,2.302063 v 0.02589 l 0.98727,0.281524 1.382179,0.365123 -0.394907,-2.172732 c -0.242127,0.06029 -0.473028,0.327101 -0.666407,0.486023 -0.426548,0.350506 -0.867938,0.682831 -1.308135,1.014198 m -9.033528,4.733451 c 0.06943,-0.252567 0.218113,-0.487676 0.326343,-0.724246 0.229986,-0.502647 0.466292,-1.001575 0.704195,-1.500219 0.071,-0.148762 0.22021,-0.653011 0.381584,-0.696644 0.12523,-0.03387 0.340188,0.07865 0.463694,0.111405 0.39585,0.105081 0.792262,0.216061 1.184723,0.334108 0.311637,0.09374 0.626107,0.176771 0.937909,0.269498 0.08217,0.02437 0.27118,0.03967 0.317604,0.124223 0.0528,0.09624 -0.07376,0.290062 -0.114053,0.374721 -0.166697,0.350276 -0.316268,0.709243 -0.481072,1.0605 -0.172829,0.368435 -0.338037,0.741575 -0.506787,1.112233 -0.05193,0.114068 -0.102963,0.345929 -0.21258,0.412093 -0.141864,0.08561 -0.600382,-0.136884 -0.755514,-0.182926 -0.731985,-0.217417 -1.550675,-0.372157 -2.246042,-0.694756 m 0.543002,-0.258665 c 0.526636,0.237513 1.129909,0.339957 1.67836,0.516672 0.122816,0.03957 0.460242,0.205659 0.576639,0.128239 0.08257,-0.05493 0.128274,-0.220079 0.16985,-0.308658 0.128274,-0.27343 0.240505,-0.554929 0.370301,-0.827708 0.121533,-0.255368 0.230582,-0.517786 0.346807,-0.775977 0.03223,-0.07164 0.134058,-0.214678 0.08809,-0.295799 -0.03795,-0.06697 -0.177896,-0.08091 -0.243538,-0.09903 l -0.715772,-0.196933 c -0.280776,-0.07735 -0.5602,-0.159289 -0.839178,-0.243341 -0.09866,-0.0297 -0.262908,-0.114923 -0.365038,-0.07798 -0.144909,0.05243 -0.241244,0.391219 -0.303341,0.525231 -0.25072,0.540934 -0.567361,1.091539 -0.763166,1.655415 m 13.550293,0.472986 c 1.479499,-0.185464 3.049112,1.131449 2.529412,2.786113 -0.323823,1.03096 -1.290215,1.654249 -2.282595,1.777346 -1.577113,0.195638 -3.049485,-1.280852 -2.407632,-2.941309 0.358876,-0.928377 1.235196,-1.506145 2.160815,-1.62215 m 0.04936,0.391555 c -0.483073,0.0673 -0.938577,0.248591 -1.299518,0.602699 -0.165241,0.162127 -0.311045,0.388765 -0.408857,0.602029 -0.66685,1.453764 0.613393,2.742789 2.004555,2.553246 0.899012,-0.122513 1.708053,-0.859341 1.797575,-1.829001 0.108312,-1.173095 -1.04377,-2.075219 -2.093755,-1.928973 m -9.32971,3.92064 c 0.234655,0.421331 0.393554,0.900394 0.584808,1.345027 0.04684,0.10894 0.127578,0.4376 0.246574,0.474326 0.112335,0.03467 0.328095,-0.134036 0.427387,-0.181796 l 1.11068,-0.533302 c 0.126969,-0.0611 0.414878,-0.288635 0.523351,-0.117486 0.04777,0.07539 0.160109,0.256205 0.115096,0.348178 -0.05993,0.122514 -0.304598,0.181896 -0.41631,0.237211 -0.369188,0.182751 -0.743807,0.354855 -1.11068,0.542511 -0.103789,0.05311 -0.368718,0.119295 -0.409294,0.244647 -0.04177,0.129093 0.138886,0.41807 0.189443,0.537671 0.183137,0.433358 0.486101,0.930552 0.565405,1.396758 l -0.518318,0.23279 -0.602825,-1.396758 -0.243142,-0.480923 -0.560893,0.228946 -1.456226,0.691706 c -0.05593,-0.102987 -0.20249,-0.340163 -0.145105,-0.459765 0.05571,-0.116062 0.307853,-0.189332 0.4166,-0.238618 0.357641,-0.162051 0.705333,-0.347586 1.061317,-0.513724 0.111247,-0.05193 0.440056,-0.145948 0.477297,-0.279867 0.03086,-0.110849 -0.118272,-0.3458 -0.160153,-0.447971 -0.138189,-0.337136 -0.279521,-0.674192 -0.423441,-1.008768 -0.03984,-0.09267 -0.157477,-0.273533 -0.123055,-0.377903 0.04258,-0.129122 0.338288,-0.210433 0.451475,-0.242888 z"
       style="fill:#2e2e3d;stroke:none;stroke-width:0.025267" />
    <path
       inkscape:export-ydpi="89.427338"
       inkscape:export-xdpi="89.427338"
       id="path10"
       d="m 31.32139,74.181805 c -1.526023,-0.513701 -2.889811,-1.0296 -3.03064,-1.146439 -0.140821,-0.11686 -0.466194,-0.586204 -0.723033,-1.043032 l -0.466981,-0.830599 0.960184,-2.13105 c 0.5281,-1.17208 0.960182,-2.206424 0.960182,-2.298546 0,-0.09212 -0.840012,-0.440669 -1.866691,-0.77455 -1.636779,-0.532288 -1.92936,-0.706235 -2.375473,-1.412311 -0.279826,-0.44289 -0.508775,-0.987268 -0.508775,-1.20973 0,-0.593135 2.324683,-5.382964 2.719847,-5.604034 0.21879,-0.122414 1.172203,0.04032 2.715478,0.463498 1.76556,0.484114 2.470603,0.593989 2.736541,0.426463 0.197031,-0.124123 0.808456,-1.235212 1.358731,-2.469092 0.792642,-1.777339 1.100799,-2.258452 1.483266,-2.315758 0.491496,-0.07365 4.992846,0.953113 5.652782,1.289401 0.239502,0.122029 0.412747,0.588369 0.511184,1.375977 0.129709,1.037721 0.06189,1.404942 -0.525827,2.847447 -0.503163,1.234989 -0.607709,1.697478 -0.411157,1.818912 0.144952,0.08956 1.131898,0.377323 2.193195,0.639469 2.32186,0.57352 2.729243,0.913463 2.729243,2.277445 0,1.158987 -1.572036,5.776834 -2.192202,6.439583 -0.394518,0.421607 -0.417591,0.418442 -2.897154,-0.397365 -1.486786,-0.48917 -2.7007,-0.771867 -2.996145,-0.69774 -0.388343,0.09745 -0.685854,0.584344 -1.363986,2.232333 -0.477023,1.159243 -0.933483,2.326397 -1.014357,2.593672 -0.27813,0.919158 -0.72496,0.9101 -3.648212,-0.07396 z m 1.686025,-2.880376 c 0.06858,-0.110906 -0.03503,-0.600664 -0.230241,-1.08835 -0.195183,-0.487687 -0.318447,-0.909839 -0.273885,-0.938116 0.04455,-0.02829 0.44544,-0.216965 0.890839,-0.419309 0.445402,-0.202344 0.80982,-0.515186 0.80982,-0.695206 0,-0.430682 -0.275592,-0.412882 -1.304961,0.0843 l -0.85219,0.411597 -0.43276,-0.977995 c -0.355586,-0.803586 -0.487665,-0.932448 -0.74063,-0.722575 -0.266437,0.221058 -0.266481,0.354442 -3.02e-4,0.991225 0.428716,1.025728 0.412975,1.068325 -0.556268,1.505245 -0.555669,0.2505 -0.863809,0.531715 -0.863809,0.788361 0,0.498321 0.04138,0.496773 1.095772,-0.04095 1.008484,-0.514316 1.163863,-0.457127 1.496645,0.550867 0.237284,0.71874 0.695871,0.981365 0.961991,0.550924 z m 8.663255,-4.309161 c 1.038103,-0.471327 1.726756,-1.656183 1.498089,-2.577517 -0.334408,-1.347382 -1.904462,-2.204008 -3.235019,-1.765032 -2.206623,0.728004 -2.502755,3.554991 -0.46525,4.44146 0.889961,0.387202 1.158029,0.375162 2.20218,-0.09893 z M 30.163252,61.944842 c 0.322035,-0.739002 0.585506,-1.446345 0.585495,-1.571877 -2.8e-5,-0.223521 -2.953584,-1.100805 -3.125944,-0.9285 -0.04814,0.04813 -0.382292,0.744223 -0.742536,1.546869 l -0.654989,1.459351 0.480118,0.194708 c 1.032834,0.418851 2.434669,0.802574 2.64801,0.724837 0.123381,-0.04496 0.487808,-0.686375 0.809846,-1.425388 z m 8.285409,-3.340519 c -0.05689,-0.207796 -0.221291,-1.039276 -0.365345,-1.847761 -0.179962,-1.009932 -0.346159,-1.437655 -0.53109,-1.366717 -0.40404,0.154992 -3.132326,2.361798 -3.132326,2.533622 0,0.179484 2.923894,1.018349 3.631744,1.041956 0.375746,0.01253 0.474675,-0.07745 0.397017,-0.3611 z"
       style="fill:#008080;fill-opacity:0.38;stroke-width:0.215917" />
    <path
       inkscape:export-ydpi="89.427338"
       inkscape:export-xdpi="89.427338"
       id="path12"
       d="m 36.420171,57.877778 -0.699126,-0.201867 0.699126,-0.627734 c 0.775626,-0.69642 0.906177,-0.652529 1.097076,0.368824 0.14343,0.767363 0.07059,0.797959 -1.097076,0.460784 z"
       style="fill:#000000;fill-opacity:0.38;stroke-width:0.215917" />
    <path
       inkscape:export-ydpi="89.427338"
       inkscape:export-xdpi="89.427338"
       id="path18"
       d="m 37.798713,58.824068 c -0.115466,-0.0423 -0.74251,-0.210533 -1.3934,-0.373905 -0.650888,-0.163359 -1.32673,-0.352625 -1.501871,-0.420569 l -0.318441,-0.123539 0.127579,-0.133509 c 0.07017,-0.07342 0.255412,-0.228695 0.411672,-0.345034 0.15626,-0.116333 0.702658,-0.548111 1.214225,-0.959519 1.322898,-1.063884 1.30589,-1.051153 1.347851,-1.009205 0.02022,0.02035 0.0631,0.173305 0.09505,0.339896 0.08265,0.431261 0.551805,3.051949 0.551805,3.082445 0,0.05247 -0.332247,0.01708 -0.534452,-0.05703 z M 37.786323,58.28638 C 37.775013,58.23915 37.684187,57.745433 37.58466,57.189217 37.48515,56.633 37.399522,56.172153 37.394369,56.165113 c -0.02855,-0.03914 -0.304352,0.143111 -0.588177,0.388675 -0.178462,0.15439 -0.564995,0.464972 -0.858942,0.690141 -0.293951,0.225179 -0.534456,0.427643 -0.534456,0.449941 0,0.02236 0.206143,0.09975 0.458105,0.172148 0.648087,0.186193 1.822605,0.499969 1.88427,0.503364 0.03486,0.002 0.04506,-0.02539 0.03114,-0.08302 z"
       style="fill:#00ffff;fill-opacity:0.38;stroke-width:0.0381688" />
    <path
       inkscape:export-ydpi="89.427338"
       inkscape:export-xdpi="89.427338"
       id="path20"
       d="m 39.890272,67.128541 c -0.514683,-0.12475 -1.047802,-0.490774 -1.341049,-0.920746 -0.285075,-0.417992 -0.349351,-0.635486 -0.347592,-1.176222 0.0014,-0.405386 0.01326,-0.487995 0.10455,-0.719775 0.382049,-0.970399 1.2744,-1.602584 2.336812,-1.655515 0.463417,-0.02312 0.738583,0.03683 1.193968,0.259948 0.731931,0.358615 1.226324,1.089872 1.228933,1.817722 0.0014,0.379645 -0.05643,0.624926 -0.236425,1.003637 -0.125382,0.263772 -0.213036,0.38266 -0.469147,0.636296 -0.266607,0.264019 -0.375754,0.341194 -0.710866,0.502625 -0.217744,0.10491 -0.519544,0.217844 -0.670663,0.250977 -0.331094,0.07262 -0.791421,0.07308 -1.088537,0.0011 z m 1.170426,-0.380744 c 0.787716,-0.205083 1.430014,-0.902172 1.548872,-1.68094 0.138342,-0.90645 -0.475587,-1.768996 -1.437353,-2.019421 -0.299024,-0.07785 -0.592932,-0.07237 -0.945197,0.01783 -0.649185,0.16597 -1.130622,0.54036 -1.400004,1.088695 -0.37682,0.767036 -0.268021,1.510133 0.304928,2.082636 0.257783,0.257566 0.533551,0.420145 0.869147,0.512375 0.253623,0.06969 0.789927,0.06916 1.059607,-0.0011 z"
       style="fill:#ff0000;fill-opacity:0.38;stroke-width:0.0381688" />
    <path
       inkscape:export-ydpi="89.427338"
       inkscape:export-xdpi="89.427338"
       id="path22"
       d="M 28.922965,63.199126 C 28.77599,63.146246 28.346517,63.018284 27.968582,62.914755 27.106157,62.678524 26.989179,62.64263 26.65723,62.512436 l -0.269473,-0.105708 0.05193,-0.118668 c 0.02855,-0.06526 0.243734,-0.522242 0.478161,-1.01549 0.234429,-0.493248 0.487199,-1.042784 0.561715,-1.221194 0.152759,-0.365727 0.259231,-0.534273 0.33754,-0.534273 0.02931,0 0.616515,0.160721 1.304904,0.357129 0.688391,0.196416 1.311745,0.373017 1.385232,0.392438 0.179244,0.04738 0.186573,0.138265 0.03708,0.460242 -0.06626,0.142708 -0.325107,0.714525 -0.575251,1.270744 -0.597819,1.3293 -0.569864,1.276619 -0.68344,1.288018 -0.05249,0.0053 -0.215689,-0.03368 -0.362666,-0.08657 z m 0.76878,-1.430427 c 0.259388,-0.577208 0.47168,-1.087628 0.471763,-1.134269 1.5e-4,-0.09278 0.06076,-0.07013 -0.896969,-0.335236 -0.272951,-0.07556 -0.663613,-0.188653 -0.868134,-0.251364 -0.453925,-0.139149 -0.48843,-0.127085 -0.647628,0.226459 -0.06295,0.139776 -0.264987,0.571835 -0.449002,0.960135 -0.184006,0.388303 -0.352724,0.760559 -0.374917,0.827241 l -0.04034,0.121232 0.273811,0.09762 c 0.150585,0.05371 0.522901,0.165869 0.827351,0.249269 0.304448,0.0834 0.648024,0.186494 0.763505,0.229097 0.115466,0.0426 0.268238,0.07335 0.339464,0.06835 l 0.129491,-0.009 z"
       style="fill:#ff6600;fill-opacity:0.38;stroke-width:0.0381688" />
    <path
       inkscape:export-ydpi="89.427338"
       inkscape:export-xdpi="89.427338"
       id="path24"
       d="m 32.441013,71.299739 c -0.301751,-0.714764 -0.402403,-0.944326 -0.568896,-1.297521 -0.106355,-0.22563 -0.213514,-0.410245 -0.238099,-0.410245 -0.07511,0 -0.484007,0.176094 -1.248213,0.537537 -0.400982,0.18966 -0.742953,0.330904 -0.75993,0.31389 -0.01696,-0.01708 -0.05706,-0.09364 -0.08905,-0.170266 -0.05443,-0.130318 -0.05327,-0.145572 0.01805,-0.236257 0.04195,-0.05331 0.114487,-0.108741 0.161174,-0.12314 0.154324,-0.04763 1.610576,-0.749764 1.678716,-0.809404 0.03673,-0.03216 0.06682,-0.08352 0.06682,-0.114196 0,-0.03065 -0.164501,-0.44165 -0.365549,-0.913331 -0.411984,-0.966541 -0.410179,-0.940205 -0.0723,-1.055297 l 0.165241,-0.0563 0.168872,0.387936 c 0.09287,0.213372 0.251205,0.599588 0.351834,0.858275 0.100636,0.258691 0.207448,0.494817 0.237371,0.524733 0.07702,0.07702 0.158348,0.06732 0.348908,-0.04157 0.371623,-0.212368 1.657646,-0.813437 1.703101,-0.796001 0.02683,0.01025 0.08013,0.07689 0.118424,0.147959 0.112095,0.208071 0.05045,0.269997 -0.548116,0.550361 -1.159352,0.543036 -1.306927,0.622341 -1.330146,0.714816 -0.01544,0.06137 0.05043,0.243391 0.215058,0.594579 0.268304,0.572345 0.476473,1.068641 0.51035,1.21671 0.02109,0.09192 0.0048,0.108072 -0.200881,0.20036 -0.123055,0.05522 -0.234264,0.100381 -0.247104,0.100381 -0.01283,0 -0.04693,-0.05582 -0.07572,-0.124024 z"
       style="fill:#ff00ff;fill-opacity:0.38;stroke-width:0.0381688" />
    <path
       inkscape:export-ydpi="89.427338"
       inkscape:export-xdpi="89.427338"
       id="path26"
       d="m 28.961138,63.195317 c -0.08398,-0.03101 -0.564994,-0.174812 -1.068905,-0.319629 -0.782893,-0.224977 -1.417837,-0.432026 -1.463093,-0.477075 -0.01283,-0.01282 0.962366,-2.131136 1.185837,-2.576197 0.123773,-0.246481 0.125513,-0.248014 0.277256,-0.240679 0.08398,0.0043 0.616528,0.137881 1.18343,0.29741 1.646038,0.463188 1.546098,0.428518 1.546098,0.536369 0,0.08009 -0.897209,2.120873 -1.169544,2.660249 -0.08152,0.161448 -0.105028,0.180966 -0.214949,0.17858 -0.06789,-0.0014 -0.192161,-0.02803 -0.276127,-0.05901 z m 0.458031,-0.76832 c 0.560259,-1.258066 0.746881,-1.714691 0.736635,-1.802406 -0.01065,-0.09065 -0.05517,-0.108798 -0.774736,-0.315403 -0.41993,-0.120577 -0.897548,-0.255056 -1.061378,-0.298833 -0.454991,-0.121588 -0.360785,-0.241154 -1.1397,1.446552 -0.167872,0.363743 -0.296161,0.684977 -0.285075,0.713849 0.01109,0.02887 0.214253,0.112345 0.45147,0.18549 1.14463,0.352952 1.589501,0.475691 1.733333,0.478226 l 0.15676,0.0026 z"
       style="fill:#ff00ff;fill-opacity:0.38;stroke-width:0.0381688" />
    <path
       inkscape:export-ydpi="89.427338"
       inkscape:export-xdpi="89.427338"
       id="path30"
       d="m 37.798713,58.808051 c -0.09448,-0.03035 -0.601263,-0.167326 -1.126173,-0.304362 -1.16082,-0.303063 -1.408652,-0.373183 -1.76815,-0.500254 l -0.27931,-0.09874 0.107529,-0.113213 c 0.05915,-0.06225 0.21919,-0.201289 0.355666,-0.308977 0.136494,-0.107659 0.669023,-0.531811 1.183434,-0.942523 1.311287,-1.046952 1.37379,-1.092511 1.412655,-1.029642 0.01783,0.02871 0.07613,0.285106 0.129731,0.569774 0.170046,0.903022 0.480905,2.666955 0.480905,2.728749 0,0.07707 -0.255133,0.07664 -0.496279,-7.46e-4 z m 0,-0.495955 c 0,-0.08456 -0.379073,-2.125141 -0.398363,-2.144422 -0.0087,-0.0085 -0.05267,-0.0043 -0.0977,0.01025 -0.110204,0.03497 -1.889891,1.462757 -1.889891,1.516204 0,0.05489 0.15639,0.105707 1.278869,0.415422 1.00714,0.277906 1.107085,0.296199 1.107085,0.202646 z"
       style="fill:#00ff00;fill-opacity:0.38;stroke-width:0.0381688" />
    <path
       inkscape:export-ydpi="89.427338"
       inkscape:export-xdpi="89.427338"
       id="path32"
       d="m 32.456117,71.280658 c -0.02668,-0.05772 -0.159978,-0.362542 -0.296241,-0.677382 -0.340129,-0.785888 -0.463239,-1.011303 -0.552311,-1.011303 -0.03986,0 -0.325208,0.113797 -0.634115,0.252856 -0.308908,0.139064 -0.730127,0.328384 -0.936044,0.420691 -0.205925,0.09229 -0.389336,0.158584 -0.407599,0.147305 -0.01827,-0.01125 -0.05334,-0.08147 -0.07791,-0.155946 -0.03873,-0.117286 -0.03527,-0.145975 0.02585,-0.214302 0.03879,-0.04338 0.147866,-0.11186 0.242349,-0.152153 0.09448,-0.04029 0.494366,-0.230204 0.888634,-0.42196 0.575587,-0.279968 0.721285,-0.366367 0.73939,-0.438467 0.01566,-0.06235 -0.07802,-0.333121 -0.306464,-0.885965 -0.18094,-0.43789 -0.329004,-0.847949 -0.329004,-0.911232 0,-0.101535 0.02066,-0.122912 0.175091,-0.181922 0.211318,-0.08068 0.177505,-0.12136 0.444727,0.535215 0.411062,1.010045 0.498868,1.184328 0.602868,1.196571 0.05878,0.007 0.313583,-0.09756 0.66734,-0.273591 0.31475,-0.156625 0.73454,-0.356 0.932866,-0.443047 l 0.360587,-0.158283 0.06804,0.0884 c 0.08487,0.110279 0.08848,0.234648 0.0089,0.303157 -0.03351,0.02881 -0.45867,0.249872 -0.944837,0.491243 l -0.88394,0.438865 0.0037,0.135147 c 0.0021,0.079 0.111225,0.372251 0.262682,0.706003 0.323196,0.712251 0.449489,1.044208 0.423262,1.112534 -0.01979,0.05174 -0.304776,0.199958 -0.387607,0.20164 -0.02288,4.56e-4 -0.06341,-0.0464 -0.09007,-0.104098 z"
       style="fill:#00ffff;fill-opacity:0.38;stroke-width:0.0381688" />
    <text
       style="font-style:normal;font-weight:normal;font-size:10.5833px;line-height:1.25;font-family:sans-serif;white-space:pre;shape-inside:url(#rect36);fill:#000000;fill-opacity:1;stroke:none;"
       id="text34"
       xml:space="preserve" />
    <text
       transform="matrix(0.44465279,0,0,0.84566504,15.8466,33.483843)"
       style="font-style:normal;font-variant:normal;font-weight:normal;font-stretch:normal;font-size:10.5833px;line-height:1.25;font-family:Bahnschrift;-inkscape-font-specification:'Bahnschrift, Normal';font-variant-ligatures:normal;font-variant-caps:normal;font-variant-numeric:normal;font-variant-east-asian:normal;white-space:pre;shape-inside:url(#rect42);opacity:0.9902;fill:#ffffff;fill-opacity:1;stroke:none;"
       id="text40"
       xml:space="preserve"><tspan
         x="70.302734"
         y="39.584849"><tspan
           style="font-style:normal;font-variant:normal;font-weight:normal;font-stretch:normal;font-size:10.5833px;font-family:Bahnschrift;-inkscape-font-specification:'Bahnschrift, Normal';font-variant-ligatures:normal;font-variant-caps:normal;font-variant-numeric:normal;font-variant-east-asian:normal;fill:#ffffff">Game Sparring</tspan></tspan></text>
    <text
       style="font-style:normal;font-weight:normal;font-size:10.5833px;line-height:1.25;font-family:sans-serif;white-space:pre;shape-inside:url(#rect48);fill:#000000;fill-opacity:1;stroke:none;"
       id="text46"
       xml:space="preserve" />
    <text
       style="font-style:normal;font-weight:normal;font-size:10.5833px;line-height:1.25;font-family:sans-serif;white-space:pre;shape-inside:url(#rect54);fill:#000000;fill-opacity:1;stroke:none;"
       id="text52"
       xml:space="preserve" />
    <rect
       y="45.238483"
       x="32.595978"
       height="25.234491"
       width="96.076187"
       id="rect62"
       style="fill:none;fill-opacity:0.38;stroke-width:0.130783" />
    <rect
       y="44.194298"
       x="27.982716"
       height="26.278679"
       width="100.68945"
       id="rect64"
       style="fill:none;fill-opacity:0.38;stroke-width:0.130783" />
    <rect
       y="44.194298"
       x="27.982716"
       height="30.281387"
       width="17.450161"
       id="rect66"
       style="fill:none;fill-opacity:0.38;stroke-width:0.130783" />
    <rect
       y="44.194298"
       x="27.982716"
       height="26.278677"
       width="100.68945"
       id="rect68"
       style="fill:none;fill-opacity:0.38;stroke-width:0.130783" />
  </g>
</svg>
