<?xml version="1.0" encoding="UTF-8" standalone="no"?>
<svg
   xmlns:dc="http://purl.org/dc/elements/1.1/"
   xmlns:cc="http://creativecommons.org/ns#"
   xmlns:rdf="http://www.w3.org/1999/02/22-rdf-syntax-ns#"
   xmlns:svg="http://www.w3.org/2000/svg"
   xmlns="http://www.w3.org/2000/svg"
   xmlns:sodipodi="http://sodipodi.sourceforge.net/DTD/sodipodi-0.dtd"
   xmlns:inkscape="http://www.inkscape.org/namespaces/inkscape"
   inkscape:version="1.0 (4035a4fb49, 2020-05-01)"
   sodipodi:docname="sv3.svg"
   id="svg9"
   xml:space="preserve"
   width="42.945004mm"
   viewBox="0 0 4294.5005 4290.7854"
   version="1.1"
   style="clip-rule:evenodd;fill-rule:evenodd;image-rendering:optimizeQuality;shape-rendering:geometricPrecision;text-rendering:geometricPrecision"
   height="42.907852mm"><metadata
     id="metadata13"><rdf:RDF><cc:Work
         rdf:about=""><dc:format>image/svg+xml</dc:format><dc:type
           rdf:resource="http://purl.org/dc/dcmitype/StillImage" /></cc:Work></rdf:RDF></metadata><sodipodi:namedview
     inkscape:current-layer="svg9"
     inkscape:window-maximized="1"
     inkscape:window-y="-8"
     inkscape:window-x="-8"
     inkscape:cy="-11.115761"
     inkscape:cx="-37.459648"
     inkscape:zoom="1.297061"
     showgrid="false"
     id="namedview11"
     inkscape:window-height="1017"
     inkscape:window-width="1920"
     inkscape:pageshadow="2"
     inkscape:pageopacity="0"
     guidetolerance="10"
     gridtolerance="10"
     objecttolerance="10"
     borderopacity="1"
     bordercolor="#666666"
     pagecolor="#ffffff" /><defs
     id="defs4"><style
       id="style2"
       type="text/css">
   <![CDATA[
    .fil0 {fill:black;fill-rule:nonzero}
   ]]>
  </style></defs><g
     transform="matrix(18.038057,0,0,18.022452,-296.1849,-295.92866)"
     id="Layer_x0020_1"><path
       id="path6"
       d="m 135.46,110.1 c 4.8,0 8.72,3.91 8.72,8.71 0,4.38 3.56,7.93 7.94,7.93 4.37,0 7.93,-3.55 7.93,-7.93 0,-10.76 -7.01,-19.84 -16.66,-23.16 v -4.5 c 0,-4.37 -3.55,-7.94 -7.93,-7.94 -4.39,0 -7.94,3.57 -7.94,7.94 v 4.5 c -9.65,3.32 -16.64,12.4 -16.64,23.16 0,13.57 11.02,24.59 24.58,24.59 4.8,0 8.72,3.92 8.72,8.72 0,4.81 -3.92,8.72 -8.72,8.72 -4.8,0 -8.71,-3.91 -8.71,-8.72 0,-4.38 -3.56,-7.94 -7.94,-7.94 -4.39,0 -7.93,3.56 -7.93,7.94 0,10.76 6.99,19.83 16.64,23.15 v 4.5 c 0,4.39 3.55,7.95 7.94,7.95 4.38,0 7.93,-3.56 7.93,-7.95 v -4.5 c 9.65,-3.32 16.66,-12.39 16.66,-23.15 0,-13.56 -11.03,-24.59 -24.59,-24.59 -4.8,0 -8.71,-3.91 -8.71,-8.72 0,-4.8 3.91,-8.71 8.71,-8.71 z m 66.49,69.43 c 3.89,2.05 8.68,0.56 10.72,-3.3 6.6,-12.47 10.08,-26.57 10.08,-40.77 0,-48.12 -39.17,-87.28 -87.29,-87.28 -48.13,0 -87.29,39.16 -87.29,87.28 0,48.13 39.16,87.29 87.29,87.29 13.99,0 27.89,-3.38 40.2,-9.79 3.89,-2.01 5.4,-6.82 3.38,-10.7 -2.02,-3.87 -6.81,-5.41 -10.71,-3.38 -10.19,5.32 -21.26,8.01 -32.87,8.01 -39.38,0 -71.43,-32.04 -71.43,-71.43 0,-39.37 32.05,-71.42 71.43,-71.42 39.38,0 71.43,32.05 71.43,71.42 0,11.63 -2.86,23.16 -8.24,33.34 -2.06,3.88 -0.58,8.68 3.3,10.73 z M 135.46,16.42 c -22.99,0 -45.31,6.58 -64.54,19.01 -3.69,2.38 -4.74,7.29 -2.36,10.97 2.39,3.68 7.28,4.72 10.98,2.36 16.64,-10.76 36,-16.46 55.92,-16.46 56.89,0 103.16,46.28 103.16,103.16 0,56.89 -46.27,103.17 -103.16,103.17 -56.89,0 -103.17,-46.28 -103.17,-103.17 0,-19.73 5.59,-38.92 16.18,-55.47 2.36,-3.7 1.28,-8.61 -2.42,-10.97 -3.69,-2.36 -8.6,-1.28 -10.95,2.41 -12.22,19.11 -18.68,41.27 -18.68,64.03 0,65.65 53.39,119.04 119.04,119.04 65.64,0 119.04,-53.39 119.04,-119.04 0,-65.63 -53.4,-119.04 -119.04,-119.04 z"
       class="fil0" /></g></svg>
